<svg xmlns="http://www.w3.org/2000/svg" xmlns:xlink="http://www.w3.org/1999/xlink" viewBox="0 0 512 377.88"><defs><style>.cls-1{fill:none;}.cls-2{fill:#fff;}.cls-3{clip-path:url(#clip-path);}</style><clipPath id="clip-path" transform="translate(0 -112.42)"><rect class="cls-1" x="51.99" width="472.45" height="615.9"/></clipPath></defs><title>アセット 2</title><g id="レイヤー_2" data-name="レイヤー 2"><g id="背景"><path class="cls-2" d="M445.61,140.83A11.4,11.4,0,1,0,429.49,157a204.48,204.48,0,0,1,0,288.82,11.4,11.4,0,1,0,16.12,16.12,227.27,227.27,0,0,0,0-321.06Z" transform="translate(0 -112.42)"/><path class="cls-2" d="M403,203.42a11.4,11.4,0,0,0-16.12,16.12,115.85,115.85,0,0,1,0,163.63A11.4,11.4,0,1,0,403,399.29a138.64,138.64,0,0,0,0-195.87Z" transform="translate(0 -112.42)"/><path class="cls-2" d="M344.13,238a12.55,12.55,0,0,0-14.08,0c-3.89,2.88-3.89,7.55,0,10.43,19.05,14.12,29.54,32.92,29.54,52.94s-10.49,38.82-29.54,52.93c-3.89,2.88-3.89,7.55,0,10.43a12.54,12.54,0,0,0,14.07,0c22.82-16.9,35.38-39.4,35.38-63.36S366.94,254.89,344.13,238Z" transform="translate(0 -112.42)"/><g class="cls-3"><path class="cls-2" d="M299.48,116.2a31.87,31.87,0,0,0-32.77,1.59l-137.2,91.46h-52a25.53,25.53,0,0,0-25.4,23.36H44.76A44.81,44.81,0,0,0,0,277.37v48A44.81,44.81,0,0,0,44.76,370.1H52.1a25.53,25.53,0,0,0,25.4,23.36h52L266.7,484.93a31.93,31.93,0,0,0,49.63-26.56v-314A31.87,31.87,0,0,0,299.48,116.2ZM52,344.77H44.76a19.45,19.45,0,0,1-19.43-19.43v-48a19.46,19.46,0,0,1,19.43-19.43H52Zm68.69,23.36H77.5a.18.18,0,0,1-.18-.17V234.76a.18.18,0,0,1,.18-.18h43.18ZM291,458.37a6.59,6.59,0,0,1-10.25,5.48L146,374V228.7l134.75-89.84A6.6,6.6,0,0,1,291,144.35Z" transform="translate(0 -112.42)"/></g></g></g></svg>