<svg xmlns="http://www.w3.org/2000/svg" viewBox="0 0 443.05 406"><defs><style>.cls-1{fill:#ccc;}</style></defs><title>レイヤー 2</title><g id="レイヤー_2" data-name="レイヤー 2"><g id="レイヤー_1-2" data-name="レイヤー 1"><g id="レイヤー_2-2" data-name="レイヤー 2"><g id="レイヤー_1-2-2" data-name="レイヤー 1-2"><path class="cls-1" d="M376.68,35.85A11.38,11.38,0,0,0,360.58,52h0c79.6,79.8,79.6,209,0,288.8a11.39,11.39,0,0,0,15.8,16.4l.3-.3c88.5-88.6,88.5-232.2,0-321Z"/><path class="cls-1" d="M334.08,98.45a11.28,11.28,0,0,0-16,.16l-.13.14a11.41,11.41,0,0,0,0,15.9,115.82,115.82,0,0,1,0,163.6,11.39,11.39,0,0,0,15.8,16.4l.3-.3a138.7,138.7,0,0,0,0-195.9Z"/><path class="cls-1" d="M275.18,133a12.51,12.51,0,0,0-14.1,0c-3.9,2.9-3.9,7.6,0,10.4,19,14.1,29.5,32.9,29.5,52.9s-10.5,38.8-29.5,52.9c-3.9,2.9-3.9,7.5,0,10.4a12.51,12.51,0,0,0,14.1,0c22.8-16.9,35.4-39.4,35.4-63.4S298,150,275.18,133Z"/><path class="cls-1" d="M215,3.35,89.78,102.84a16.64,16.64,0,0,0-2.12-.13H14.36C6.46,102.71,0,107.84,0,114.12V291.89c0,6.27,6.46,11.41,14.36,11.41h73.3c.71,0,1.42-.06,2.12-.14L215,402.65a16.9,16.9,0,0,0,12.74,3.14V.21A16.9,16.9,0,0,0,215,3.35Z"/></g></g></g></g></svg>