<svg xmlns="http://www.w3.org/2000/svg" viewBox="0 0 427.99 406"><defs><style>.cls-1{fill:#ccc;}</style></defs><title>レイヤー 2</title><g id="レイヤー_2" data-name="レイヤー 2"><g id="レイヤー_1-2" data-name="レイヤー 1"><g id="レイヤー_2-2" data-name="レイヤー 2"><g id="レイヤー_1-2-2" data-name="レイヤー 1-2"><path class="cls-1" d="M215,3.35,89.78,102.84a16.64,16.64,0,0,0-2.12-.13H14.36C6.46,102.71,0,107.84,0,114.12V291.89c0,6.27,6.46,11.41,14.36,11.41h73.3c.71,0,1.42-.06,2.12-.14L215,402.65a16.9,16.9,0,0,0,12.74,3.14V.21A16.9,16.9,0,0,0,215,3.35Z"/><path class="cls-1" d="M424.74,267.49,360.24,203l64.49-64.49a11.09,11.09,0,0,0-15.68-15.68l-64.49,64.49-64.5-64.5a11.09,11.09,0,0,0-15.68,15.68L328.87,203l-64.5,64.5a11.09,11.09,0,0,0,15.69,15.68l64.5-64.5,64.49,64.5a11.09,11.09,0,0,0,15.69-15.69Z"/></g></g></g></g></svg>