<svg xmlns="http://www.w3.org/2000/svg" xmlns:xlink="http://www.w3.org/1999/xlink" viewBox="0 0 524.44 377.87"><defs><style>.cls-1{fill:none;}.cls-2{clip-path:url(#clip-path);}.cls-3{fill:#fff;}</style><clipPath id="clip-path" transform="translate(0 -112.42)"><rect class="cls-1" x="51.99" width="472.45" height="615.9"/></clipPath></defs><title>アセット 3</title><g id="レイヤー_2" data-name="レイヤー 2"><g id="レイヤー_1-2" data-name="レイヤー 1"><g class="cls-2"><path class="cls-3" d="M299.48,116.2a31.87,31.87,0,0,0-32.77,1.59l-137.2,91.46h-52a25.53,25.53,0,0,0-25.4,23.36H44.76A44.81,44.81,0,0,0,0,277.37v48A44.81,44.81,0,0,0,44.76,370.1H52.1a25.53,25.53,0,0,0,25.4,23.36h52l137.2,91.47a31.93,31.93,0,0,0,49.63-26.56v-314A31.88,31.88,0,0,0,299.48,116.2ZM52,344.77H44.76a19.44,19.44,0,0,1-19.43-19.43v-48a19.47,19.47,0,0,1,19.43-19.43H52Zm68.69,23.36H77.5a.18.18,0,0,1-.18-.17V234.76a.18.18,0,0,1,.18-.18h43.18ZM291,458.37a6.59,6.59,0,0,1-10.25,5.48L146,374V228.7l134.75-89.84A6.6,6.6,0,0,1,291,144.35Z" transform="translate(0 -112.42)"/></g><rect class="cls-3" x="429.93" y="194.56" width="22.18" height="226.78" rx="11.09" ry="11.09" transform="translate(346.93 -334.07) rotate(45)"/><rect class="cls-3" x="429.93" y="194.56" width="22.18" height="226.78" rx="11.09" ry="11.09" transform="translate(970.63 101.43) rotate(135)"/></g></g></svg>